<svg xmlns="http://www.w3.org/2000/svg" width="34.873" height="34.873" viewBox="0 0 34.873 34.873">
  <path id="Icon_metro-facebook" data-name="Icon metro-facebook" d="M31.632,1.928H8.382A5.812,5.812,0,0,0,2.571,7.741V30.988A5.812,5.812,0,0,0,8.382,36.8H20.007V21.544H15.648V17.185h4.359V13.916a5.449,5.449,0,0,1,5.449-5.449H30.9v4.359H25.456a1.09,1.09,0,0,0-1.09,1.09v3.269H30.36l-1.09,4.359h-4.9V36.8h7.266a5.812,5.812,0,0,0,5.812-5.813V7.741a5.812,5.812,0,0,0-5.812-5.813Z" transform="translate(-2.571 -1.928)" fill="#2c2c2c"/>
</svg>
