<svg xmlns="http://www.w3.org/2000/svg" width="35.629" height="35.621" viewBox="0 0 35.629 35.621">
  <path id="Icon_awesome-instagram" data-name="Icon awesome-instagram" d="M17.813,10.915a9.133,9.133,0,1,0,9.133,9.133A9.118,9.118,0,0,0,17.813,10.915Zm0,15.07a5.938,5.938,0,1,1,5.938-5.938,5.948,5.948,0,0,1-5.938,5.938ZM29.45,10.542a2.13,2.13,0,1,1-2.13-2.13A2.125,2.125,0,0,1,29.45,10.542ZM35.5,12.7c-.135-2.854-.787-5.381-2.877-7.464s-4.61-2.734-7.464-2.877c-2.941-.167-11.756-.167-14.7,0C7.615,2.5,5.088,3.15,3,5.232S.263,9.842.12,12.7c-.167,2.941-.167,11.756,0,14.7C.255,30.246.907,32.774,3,34.856s4.61,2.734,7.464,2.877c2.941.167,11.756.167,14.7,0,2.854-.135,5.381-.787,7.464-2.877s2.734-4.61,2.877-7.464c.167-2.941.167-11.748,0-14.689ZM31.7,30.548a6.011,6.011,0,0,1-3.386,3.386c-2.345.93-7.909.715-10.5.715s-8.163.207-10.5-.715a6.011,6.011,0,0,1-3.386-3.386C3,28.2,3.212,22.64,3.212,20.048s-.207-8.163.715-10.5A6.011,6.011,0,0,1,7.313,6.162c2.345-.93,7.909-.715,10.5-.715s8.163-.207,10.5.715A6.011,6.011,0,0,1,31.7,9.548c.93,2.345.715,7.909.715,10.5S32.629,28.211,31.7,30.548Z" transform="translate(0.005 -2.238)" fill="#2c2c2c"/>
</svg>
