<svg xmlns="http://www.w3.org/2000/svg" width="269.547" height="38.301" viewBox="0 0 269.547 38.301">
  <path id="パス_22" data-name="パス 22" d="M2.656.137V-.879A13.173,13.173,0,0,0,4.688-2.07q.254-5.293.254-11.035,0-4.512-.1-8.516A13.231,13.231,0,0,0,4.57-24.9a.682.682,0,0,0-.4-.381,19.355,19.355,0,0,0-2.842-.342v-1.641q3.77.1,6.992.1,3.125,0,5.918-.1v1.641a9.4,9.4,0,0,0-3.089.469,1.1,1.1,0,0,0-.359.713q-.107.537-.165,6.318l-.117,9.512q0,2.676.137,6.191,2.549.137,3.774.137a27.714,27.714,0,0,0,6.187-.586q.518-1.761,1.016-4.2H23.34Q22.9-4.222,22.559,0,20.7.137,19.144.137L12.081.045,8.92,0Q6.734-.02,2.656.137ZM29.2-15.7v-1.5a29.764,29.764,0,0,0,5.84-1.113L36.969-19q.352,0,.352.45L37.242-17.4q-.332,4.5-.332,8.683a14.88,14.88,0,0,0,.273,3.588,2.505,2.505,0,0,0,.986,1.379,3.312,3.312,0,0,0,1.9.489,4.014,4.014,0,0,0,2.432-.763,3.143,3.143,0,0,0,1.289-1.682,30.735,30.735,0,0,0,.244-5.243A35.846,35.846,0,0,0,43.922-15a.658.658,0,0,0-.273-.431,12.153,12.153,0,0,0-2.656-.274v-1.5a32.591,32.591,0,0,0,5.865-1.055L48.923-19q.331,0,.331.411l-.037.529Q48.9-14.658,48.9-5.713a22.044,22.044,0,0,0,.155,3.445.792.792,0,0,0,.31.47,9.981,9.981,0,0,0,2.444.333v1.6Q49.577.02,47.381.02q-1.788,0-3.324.117l-.175-.352q.087-.977.156-3.066A38.563,38.563,0,0,0,40.523-.059a6.8,6.8,0,0,1-2.734.605,6.435,6.435,0,0,1-3.125-.724A4.741,4.741,0,0,1,32.7-2.064a6.927,6.927,0,0,1-.635-3.275l.039-2.132q.059-1.975.059-3.207a33.8,33.8,0,0,0-.137-4.165.921.921,0,0,0-.41-.635A8.26,8.26,0,0,0,29.2-15.7Zm28.707,0v-1.5a31.684,31.684,0,0,0,5.67-.919l2.085-.643q.273,0,.273.455,0,.379-.067,1.062l-.05,1.783,3.164-2.5a5.356,5.356,0,0,1,3.32-.8,7.056,7.056,0,0,1,5.293,2.043,7.545,7.545,0,0,1,1.992,5.5,11.986,11.986,0,0,1-.5,3.421A9.582,9.582,0,0,1,77.9-5.123,11.429,11.429,0,0,1,75.5-2.8Q72.551-.431,71.984-.1a5.25,5.25,0,0,1-2.676.645A7.434,7.434,0,0,1,67.551.334a8.329,8.329,0,0,1-1.738-.639l.078,5.939a4.851,4.851,0,0,0,.449,2.5q.371.36,2.891.36v1.6Q66.2,9.98,63.957,9.98q-4.3,0-6.055.117V8.5a8.668,8.668,0,0,0,2.383-.234.711.711,0,0,0,.293-.371,23.655,23.655,0,0,0,.254-4q.117-4.961.117-7.383L60.91-11.25a19.645,19.645,0,0,0-.215-3.906.711.711,0,0,0-.293-.371A9.155,9.155,0,0,0,57.9-15.7Zm7.91,11.576a6.364,6.364,0,0,0,1.914,1.684,4.593,4.593,0,0,0,2.246.568A3.929,3.929,0,0,0,73.264-3.6q1.279-1.724,1.279-5.563a7.255,7.255,0,0,0-1.309-4.691,4.13,4.13,0,0,0-3.34-1.6,4.7,4.7,0,0,0-2.041.49,7.87,7.87,0,0,0-2.041,1.469ZM91.961-28.2a2.916,2.916,0,0,1,2.139.889,2.938,2.938,0,0,1,.889,2.158,2.916,2.916,0,0,1-.889,2.139,2.938,2.938,0,0,1-2.158.889,2.916,2.916,0,0,1-2.139-.889,2.916,2.916,0,0,1-.889-2.139,2.938,2.938,0,0,1,.889-2.158A2.938,2.938,0,0,1,91.961-28.2ZM86.531.137v-1.6a9.107,9.107,0,0,0,2.549-.274q.342-.2.439-1.1.156-1.232.156-5.437,0-1.819-.059-3.364l-.059-2.288a2.427,2.427,0,0,0-.244-1.4,2.139,2.139,0,0,0-1.318-.3l-1.465-.059v-1.5a24.226,24.226,0,0,0,7.754-1.68l.488.392q-.293,3.739-.293,10.884A49.607,49.607,0,0,0,94.616-2.6a1.131,1.131,0,0,0,.359.783,10.187,10.187,0,0,0,2.552.352v1.6Q94,.02,92.078.02,91.046.02,86.531.137Zm17.2,0v-1.6a6.931,6.931,0,0,0,2.4-.342,1.467,1.467,0,0,0,.332-1.007q.117-1.975.117-6.963,0-2.465-.078-4.244a4.085,4.085,0,0,0-.155-1.291.586.586,0,0,0-.31-.235,17.062,17.062,0,0,0-2.308-.137v-1.5a18.591,18.591,0,0,0,3.3-.455,23.462,23.462,0,0,0,3.769-1.047l.529-.178q.274,0,.274.449l-.02.176q-.059.547-.059,2.813l3.022-2.539a3.14,3.14,0,0,1,1.17-.664,8.019,8.019,0,0,1,2.086-.234,7.056,7.056,0,0,1,3.383.715,4.423,4.423,0,0,1,1.931,1.977,9.44,9.44,0,0,1,.614,3.925q0,1.174-.059,2.721-.1,3.171-.1,5.481a5.263,5.263,0,0,0,.215,1.82.846.846,0,0,0,.439.47,13.016,13.016,0,0,0,2.139.294v1.6l-2.4-.078L122.426.02,118.4.137l-.215-.254a56.272,56.272,0,0,0,.508-7.627q0-4.967-.605-6.121a2.929,2.929,0,0,0-2.852-1.486,3.949,3.949,0,0,0-2.3.676,3.266,3.266,0,0,0-1.27,1.44,7.626,7.626,0,0,0-.137,1.978q0,7.09.059,8.118a1.988,1.988,0,0,0,.332,1.263,6.6,6.6,0,0,0,2.617.411v1.6q-3.4-.117-5.742-.117Q107.406.02,103.734.137ZM131.816-15.7v-1.5a29.764,29.764,0,0,0,5.84-1.113L139.59-19q.352,0,.352.45l-.078,1.154q-.332,4.5-.332,8.683a14.88,14.88,0,0,0,.273,3.588,2.505,2.505,0,0,0,.986,1.379,3.312,3.312,0,0,0,1.9.489,4.014,4.014,0,0,0,2.432-.763,3.144,3.144,0,0,0,1.289-1.682,30.734,30.734,0,0,0,.244-5.243A35.846,35.846,0,0,0,146.543-15a.658.658,0,0,0-.273-.431,12.153,12.153,0,0,0-2.656-.274v-1.5a32.591,32.591,0,0,0,5.865-1.055L151.544-19q.331,0,.331.411l-.037.529q-.315,3.406-.315,12.352a22.043,22.043,0,0,0,.155,3.445.792.792,0,0,0,.31.47,9.981,9.981,0,0,0,2.444.333v1.6Q152.2.02,150,.02q-1.788,0-3.324.117L146.5-.215q.087-.977.156-3.066a38.563,38.563,0,0,0-3.516,3.223,6.8,6.8,0,0,1-2.734.605,6.435,6.435,0,0,1-3.125-.724,4.741,4.741,0,0,1-1.963-1.887,6.927,6.927,0,0,1-.635-3.275l.039-2.132q.059-1.975.059-3.207a33.8,33.8,0,0,0-.137-4.165.921.921,0,0,0-.41-.635A8.26,8.26,0,0,0,131.816-15.7Zm31.207,9.512a13.123,13.123,0,0,0,.253,2.813,3.6,3.6,0,0,0,1.608,1.406,5.913,5.913,0,0,0,2.738.605,4.383,4.383,0,0,0,2.855-.788,2.583,2.583,0,0,0,.945-2.088,2.33,2.33,0,0,0-.684-1.773,6.707,6.707,0,0,0-2.93-1.133,20.357,20.357,0,0,1-4.424-1.3,4.064,4.064,0,0,1-1.631-1.65,5.326,5.326,0,0,1-.605-2.617,5.731,5.731,0,0,1,.9-3.184,6.034,6.034,0,0,1,2.584-2.178,10.594,10.594,0,0,1,4.456-.791,15.027,15.027,0,0,1,5.363.938,40.833,40.833,0,0,0-.352,4.941h-1.543a8.5,8.5,0,0,0-.332-2.48,2.3,2.3,0,0,0-1.113-.957,5.668,5.668,0,0,0-2.422-.527,3.971,3.971,0,0,0-2.549.73,2.264,2.264,0,0,0-.908,1.839,1.923,1.923,0,0,0,.82,1.635,10.952,10.952,0,0,0,3.906,1.187,17.337,17.337,0,0,1,2.949.723,4.465,4.465,0,0,1,2.08,1.712,5.229,5.229,0,0,1,.713,2.847,5.779,5.779,0,0,1-2.555,5.067A10.458,10.458,0,0,1,167.058.547a14,14,0,0,1-2.594-.271,28.319,28.319,0,0,1-3.1-.793l-.293-.329a49.158,49.158,0,0,0,.293-5.346ZM201.9-28.2a2.916,2.916,0,0,1,2.139.889,2.938,2.938,0,0,1,.889,2.158,2.916,2.916,0,0,1-.889,2.139,2.938,2.938,0,0,1-2.158.889,2.916,2.916,0,0,1-2.139-.889,2.916,2.916,0,0,1-.889-2.139,2.938,2.938,0,0,1,.889-2.158A2.938,2.938,0,0,1,201.9-28.2ZM196.473.137v-1.6a9.107,9.107,0,0,0,2.549-.274q.342-.2.439-1.1.156-1.232.156-5.437,0-1.819-.059-3.364l-.059-2.288a2.427,2.427,0,0,0-.244-1.4,2.139,2.139,0,0,0-1.318-.3l-1.465-.059v-1.5a24.226,24.226,0,0,0,7.754-1.68l.488.392q-.293,3.739-.293,10.884a49.61,49.61,0,0,0,.136,4.992,1.131,1.131,0,0,0,.359.783,10.188,10.188,0,0,0,2.552.352v1.6Q203.946.02,202.019.02,200.988.02,196.473.137Zm17.2,0v-1.6a6.931,6.931,0,0,0,2.4-.342,1.467,1.467,0,0,0,.332-1.007q.117-1.975.117-6.963,0-2.465-.078-4.244a4.085,4.085,0,0,0-.155-1.291.586.586,0,0,0-.31-.235,17.062,17.062,0,0,0-2.308-.137v-1.5a18.591,18.591,0,0,0,3.3-.455,23.462,23.462,0,0,0,3.769-1.047l.529-.178q.274,0,.274.449l-.02.176q-.059.547-.059,2.813l3.022-2.539a3.14,3.14,0,0,1,1.17-.664,8.019,8.019,0,0,1,2.086-.234,7.056,7.056,0,0,1,3.383.715,4.423,4.423,0,0,1,1.931,1.977,9.44,9.44,0,0,1,.614,3.925q0,1.174-.059,2.721-.1,3.171-.1,5.481a5.263,5.263,0,0,0,.215,1.82.846.846,0,0,0,.439.47,13.016,13.016,0,0,0,2.139.294v1.6l-2.4-.078L232.367.02l-4.023.117-.215-.254a56.271,56.271,0,0,0,.508-7.627q0-4.967-.605-6.121a2.929,2.929,0,0,0-2.852-1.486,3.949,3.949,0,0,0-2.3.676,3.266,3.266,0,0,0-1.27,1.44,7.626,7.626,0,0,0-.137,1.978q0,7.09.059,8.118a1.988,1.988,0,0,0,.332,1.263,6.6,6.6,0,0,0,2.617.411v1.6q-3.4-.117-5.742-.117Q217.348.02,213.676.137Zm42.691-11.973h-1.6a10.512,10.512,0,0,0-.333-2.676,2.365,2.365,0,0,0-1.145-1,4.961,4.961,0,0,0-2.242-.449,3.647,3.647,0,0,0-3.025,1.185q-.95,1.185-.95,4.26a9.135,9.135,0,0,0,1.778,6.023,5.69,5.69,0,0,0,4.572,2.125,9.2,9.2,0,0,0,1.866-.176,6.887,6.887,0,0,0,1.553-.509l.329.431q-.426.932-.794,1.884a12.371,12.371,0,0,1-2.628.96,11.6,11.6,0,0,1-2.706.32,9.008,9.008,0,0,1-6.634-2.356,9.017,9.017,0,0,1-2.374-6.7,12.443,12.443,0,0,1,.313-2.9,8.019,8.019,0,0,1,.85-2.209,6.026,6.026,0,0,1,1.182-1.476q.391-.313,3.359-2.17a13.288,13.288,0,0,1,2.529-1.349,7.14,7.14,0,0,1,2.119-.254,14.632,14.632,0,0,1,2.285.176,13.5,13.5,0,0,1,2.168.527l.332.352A34.44,34.44,0,0,0,256.367-11.836ZM267.76-5.7a3.007,3.007,0,0,1,2.2.908,3.011,3.011,0,0,1,.911,2.217,3.021,3.021,0,0,1-.911,2.207,2.991,2.991,0,0,1-2.2.918,3.023,3.023,0,0,1-2.214-.918,3,3,0,0,1-.921-2.207,3.021,3.021,0,0,1,.911-2.207A3.014,3.014,0,0,1,267.76-5.7Z" transform="translate(-1.328 28.203)" fill="#606060"/>
</svg>
