<svg xmlns="http://www.w3.org/2000/svg" width="40.696" height="33.053" viewBox="0 0 40.696 33.053">
  <path id="Icon_awesome-twitter" data-name="Icon awesome-twitter" d="M36.513,11.618c.026.361.026.723.026,1.085,0,11.026-8.392,23.731-23.731,23.731A23.57,23.57,0,0,1,0,32.689a17.255,17.255,0,0,0,2.014.1,16.7,16.7,0,0,0,10.355-3.563,8.355,8.355,0,0,1-7.8-5.784,10.518,10.518,0,0,0,1.575.129,8.822,8.822,0,0,0,2.195-.284A8.342,8.342,0,0,1,1.653,15.1V15a8.4,8.4,0,0,0,3.77,1.059A8.353,8.353,0,0,1,2.84,4.9a23.708,23.708,0,0,0,17.2,8.728,9.415,9.415,0,0,1-.207-1.911A8.349,8.349,0,0,1,34.267,6.015,16.421,16.421,0,0,0,39.56,4a8.318,8.318,0,0,1-3.667,4.6,16.721,16.721,0,0,0,4.8-1.291,17.929,17.929,0,0,1-4.183,4.312Z" transform="translate(0 -3.381)" fill="#2c2c2c"/>
</svg>
